<svg width="25" height="25" viewBox="0 0 25 25" fill="none" xmlns="http://www.w3.org/2000/svg">
<path d="M15.8229 21.875C14.7083 20.2396 13.5416 18.0833 13.5416 16.1458C13.5416 14.2396 14.5416 12.5 16.0416 11.4583H15.625V9.375H17.7083V10.6562C18.2291 10.5104 18.75 10.4167 19.2708 10.4167C19.4479 10.4167 19.625 10.4167 19.7916 10.4479V3.125H5.20831V21.875H11.4583V18.2292H13.5416V21.875H15.8229ZM15.625 5.20833H17.7083V7.29167H15.625V5.20833ZM9.37498 19.7917H7.29165V17.7083H9.37498V19.7917ZM9.37498 15.625H7.29165V13.5417H9.37498V15.625ZM9.37498 11.4583H7.29165V9.375H9.37498V11.4583ZM9.37498 7.29167H7.29165V5.20833H9.37498V7.29167ZM11.4583 5.20833H13.5416V7.29167H11.4583V5.20833ZM11.4583 9.375H13.5416V11.4583H11.4583V9.375ZM11.4583 15.625V13.5417H13.5416V15.625H11.4583ZM19.2708 12.5C17.2916 12.5 15.625 14.1771 15.625 16.1458C15.625 18.8646 19.2708 22.9167 19.2708 22.9167C19.2708 22.9167 22.9166 18.8646 22.9166 16.1458C22.9166 14.1771 21.25 12.5 19.2708 12.5ZM19.2708 17.5104C18.5416 17.5104 18.0208 16.8854 18.0208 16.2604C18.0208 15.5312 18.6458 15.0104 19.2708 15.0104C19.8958 15.0104 20.5208 15.625 20.5208 16.2604C20.625 16.8854 20 17.5104 19.2708 17.5104Z" fill="#DCD7C9"/>
</svg>
