<svg width="23" height="40" viewBox="0 0 23 40" fill="none" xmlns="http://www.w3.org/2000/svg">
<path d="M4.48959 38.9583L22.0417 21.4583C22.25 21.25 22.3979 21.0243 22.4854 20.7812C22.5729 20.5382 22.616 20.2778 22.6146 20C22.6146 19.7222 22.5715 19.4618 22.4854 19.2187C22.3993 18.9757 22.2514 18.75 22.0417 18.5417L4.48959 0.989581C4.00348 0.503469 3.39584 0.260414 2.66668 0.260414C1.93751 0.260414 1.31251 0.520831 0.791677 1.04166C0.270844 1.5625 0.0104275 2.17014 0.0104275 2.86458C0.0104275 3.55903 0.270844 4.16666 0.791677 4.6875L16.1042 20L0.791677 35.3125C0.305567 35.7986 0.0625095 36.3979 0.0625095 37.1104C0.0625095 37.8229 0.322927 38.4389 0.84376 38.9583C1.36459 39.4792 1.97223 39.7396 2.66668 39.7396C3.36112 39.7396 3.96876 39.4792 4.48959 38.9583Z" fill="#A27B5C"/>
</svg>
