<svg width="20" height="20" viewBox="0 0 20 20" fill="none" xmlns="http://www.w3.org/2000/svg">
<g clip-path="url(#clip0_31_6697)">
<path d="M3.75 3.01953C3.75 2.73438 3.98047 2.5 4.26953 2.5C4.40625 2.5 4.53906 2.55469 4.63672 2.65234L5.21875 3.23438C5.07813 3.58594 5 3.97266 5 4.375C5 5.15234 5.28125 5.85938 5.75 6.40625C5.54297 6.76562 5.59375 7.23047 5.89844 7.53906C6.26562 7.90625 6.85937 7.90625 7.22266 7.53906L11.2891 3.47656C11.6562 3.10938 11.6562 2.51562 11.2891 2.15234C10.9844 1.84375 10.5156 1.79687 10.1562 2.00391C9.60938 1.53125 8.90234 1.25 8.125 1.25C7.72266 1.25 7.33594 1.32812 6.98438 1.46484L6.40234 0.882813C5.83594 0.316406 5.06641 0 4.26953 0C2.60156 0 1.25 1.35156 1.25 3.01953V10C0.558594 10 0 10.5586 0 11.25C0 11.9414 0.558594 12.5 1.25 12.5H18.75C19.4414 12.5 20 11.9414 20 11.25C20 10.5586 19.4414 10 18.75 10H3.75V3.01953ZM1.25 13.75V14.375C1.25 15.4844 1.73437 16.4844 2.5 17.1719V18.75C2.5 19.4414 3.05859 20 3.75 20C4.44141 20 5 19.4414 5 18.75V18.125H15V18.75C15 19.4414 15.5586 20 16.25 20C16.9414 20 17.5 19.4414 17.5 18.75V17.1719C18.2656 16.4844 18.75 15.4883 18.75 14.375V13.75H1.25Z" fill="black"/>
</g>
<defs>
<clipPath id="clip0_31_6697">
<rect width="20" height="20" fill="white"/>
</clipPath>
</defs>
</svg>
