<svg width="22" height="22" viewBox="0 0 22 22" fill="none" xmlns="http://www.w3.org/2000/svg">
<path d="M17.4167 6.41659H10.0833V12.8333H2.74999V4.58325H0.916656V18.3333H2.74999V15.5833H19.25V18.3333H21.0833V10.0833C21.0833 9.11079 20.697 8.17816 20.0094 7.49053C19.3217 6.80289 18.3891 6.41659 17.4167 6.41659ZM6.41666 11.9166C7.146 11.9166 7.84548 11.6269 8.3612 11.1111C8.87693 10.5954 9.16666 9.89593 9.16666 9.16659C9.16666 8.43724 8.87693 7.73777 8.3612 7.22204C7.84548 6.70632 7.146 6.41659 6.41666 6.41659C5.68731 6.41659 4.98784 6.70632 4.47211 7.22204C3.95639 7.73777 3.66666 8.43724 3.66666 9.16659C3.66666 9.89593 3.95639 10.5954 4.47211 11.1111C4.98784 11.6269 5.68731 11.9166 6.41666 11.9166Z" fill="black"/>
</svg>
