<svg width="87" height="87" viewBox="0 0 87 87" fill="none" xmlns="http://www.w3.org/2000/svg">
<g clip-path="url(#clip0_101_3302)">
<path d="M87 43.5C87 19.4758 67.5242 0 43.5 0C19.4758 0 0 19.4754 0 43.5C0 65.2119 15.9074 83.2084 36.7031 86.4715V56.0742H25.6582V43.5H36.7031V33.9164C36.7031 23.0142 43.1975 16.9922 53.1336 16.9922C57.8931 16.9922 62.8711 17.8418 62.8711 17.8418V28.5469H57.386C51.9818 28.5469 50.2969 31.9001 50.2969 35.3404V43.5H62.3613L60.4327 56.0742H50.2969V86.4715C71.0926 83.2084 87 65.2123 87 43.5Z" fill="#1877F2"/>
<path d="M60.4327 56.0742L62.3613 43.5H50.2969V35.3404C50.2969 31.8998 51.9822 28.5469 57.386 28.5469H62.8711V17.8418C62.8711 17.8418 57.8931 16.9922 53.1336 16.9922C43.1975 16.9922 36.7031 23.0142 36.7031 33.9164V43.5H25.6582V56.0742H36.7031V86.4715C38.9516 86.8239 41.2241 87.0006 43.5 87C45.7759 87.0007 48.0484 86.824 50.2969 86.4715V56.0742H60.4327Z" fill="white"/>
</g>
<defs>
<clipPath id="clip0_101_3302">
<rect width="87" height="87" fill="white"/>
</clipPath>
</defs>
</svg>
