<svg width="20" height="22" viewBox="0 0 20 22" fill="none" xmlns="http://www.w3.org/2000/svg">
<path d="M17.0167 9.33164L10.5917 2.10831C10.5142 2.02239 10.422 1.95419 10.3205 1.90766C10.2189 1.86112 10.11 1.83716 10 1.83716C9.88999 1.83716 9.78107 1.86112 9.67952 1.90766C9.57797 1.95419 9.48581 2.02239 9.40834 2.10831L2.98334 9.34081C2.82787 9.5132 2.70508 9.71785 2.62211 9.94288C2.53914 10.1679 2.49763 10.4088 2.5 10.6516V18.3333C2.49936 18.8026 2.66232 19.2542 2.95532 19.5953C3.24832 19.9363 3.64906 20.1408 4.075 20.1666H15.925C16.351 20.1408 16.7517 19.9363 17.0447 19.5953C17.3377 19.2542 17.5006 18.8026 17.5 18.3333V10.6516C17.5007 10.1593 17.3274 9.68601 17.0167 9.33164ZM8.33334 18.3333V12.8333H11.6667V18.3333H8.33334ZM15.8333 18.3333H13.3333V11.9166C13.3333 11.6735 13.2455 11.4404 13.0893 11.2685C12.933 11.0966 12.721 11 12.5 11H7.5C7.27899 11 7.06703 11.0966 6.91075 11.2685C6.75447 11.4404 6.66667 11.6735 6.66667 11.9166V18.3333H4.16667V10.615L10 4.06081L15.8333 10.6516V18.3333Z" fill="black"/>
</svg>
