<svg width="87" height="87" viewBox="0 0 87 87" fill="none" xmlns="http://www.w3.org/2000/svg">
<g clip-path="url(#clip0_101_3292)">
<path d="M86.9585 44.3139C86.9585 40.7495 86.6625 38.1485 86.0219 35.4512H44.3666V51.5389H68.8173C68.3245 55.5369 65.6625 61.5578 59.7469 65.6036L59.664 66.1422L72.8346 76.1117L73.7471 76.2007C82.1273 68.6383 86.9585 57.5116 86.9585 44.3139Z" fill="#4285F4"/>
<path d="M44.3666 86.7011C56.3454 86.7011 66.4017 82.8476 73.7471 76.2007L59.7469 65.6036C56.0005 68.1565 50.9721 69.9387 44.3666 69.9387C32.6342 69.9387 22.6764 62.3767 19.1267 51.9244L18.6064 51.9675L4.9114 62.3235L4.7323 62.81C12.0281 76.9711 27.0142 86.7011 44.3666 86.7011Z" fill="#34A853"/>
<path d="M19.1267 51.9244C18.1901 49.227 17.6481 46.3368 17.6481 43.3506C17.6481 40.364 18.1901 37.4741 19.0775 34.7768L19.0527 34.2023L5.18602 23.6799L4.73232 23.8908C1.72539 29.7673 0 36.3663 0 43.3506C0 50.3348 1.72539 56.9335 4.73232 62.81L19.1267 51.9244Z" fill="#FBBC05"/>
<path d="M44.3666 16.7621C52.6975 16.7621 58.3172 20.2783 61.5216 23.2167L74.0428 11.2711C66.3528 4.28691 56.3454 0 44.3666 0C27.0142 0 12.0281 9.72972 4.7323 23.8908L19.0774 34.7768C22.6764 24.3245 32.6342 16.7621 44.3666 16.7621Z" fill="#EB4335"/>
</g>
<defs>
<clipPath id="clip0_101_3292">
<rect width="87" height="87" fill="white"/>
</clipPath>
</defs>
</svg>
