<svg width="26" height="28" viewBox="0 0 26 28" fill="none" xmlns="http://www.w3.org/2000/svg">
<path d="M22.1217 11.8767L13.7692 2.68335C13.6685 2.57401 13.5486 2.48721 13.4166 2.42798C13.2846 2.36875 13.143 2.33826 13 2.33826C12.857 2.33826 12.7154 2.36875 12.5834 2.42798C12.4514 2.48721 12.3315 2.57401 12.2308 2.68335L3.87834 11.8884C3.67623 12.1078 3.51661 12.3682 3.40874 12.6546C3.30088 12.941 3.24692 13.2476 3.25 13.5567V23.3334C3.24916 23.9306 3.46101 24.5054 3.84191 24.9395C4.22281 25.3736 4.74377 25.6338 5.2975 25.6667H20.7025C21.2562 25.6338 21.7772 25.3736 22.1581 24.9395C22.539 24.5054 22.7508 23.9306 22.75 23.3334V13.5567C22.7509 12.9301 22.5256 12.3277 22.1217 11.8767ZM10.8333 23.3334V16.3334H15.1667V23.3334H10.8333ZM20.5833 23.3334H17.3333V15.1667C17.3333 14.8573 17.2192 14.5605 17.016 14.3417C16.8129 14.1229 16.5373 14 16.25 14H9.75C9.46269 14 9.18714 14.1229 8.98397 14.3417C8.78081 14.5605 8.66667 14.8573 8.66667 15.1667V23.3334H5.41667V13.51L13 5.16835L20.5833 13.5567V23.3334Z" fill="#A27B5C"/>
</svg>
