<svg width="25" height="25" viewBox="0 0 25 25" fill="none" xmlns="http://www.w3.org/2000/svg">
<path d="M10.1563 8.75C10.3063 7.5875 10.5563 6.55625 10.8738 5.72875C11.14 5.03625 11.4425 4.5175 11.7463 4.18375C12.05 3.85 12.305 3.75 12.5 3.75C12.695 3.75 12.95 3.85 13.2538 4.18375C13.5575 4.5175 13.86 5.03625 14.1263 5.72875C14.445 6.55625 14.695 7.5875 14.8438 8.75H10.1563ZM9.70626 5.28C9.87501 4.84375 10.065 4.44 10.2788 4.08375C9.16294 4.43094 8.14341 5.03345 7.30109 5.84344C6.45876 6.65343 5.81684 7.64862 5.42626 8.75H8.89626C9.05376 7.4375 9.33251 6.25125 9.70626 5.28ZM15.2938 5.28C15.1376 4.86558 14.946 4.46535 14.7213 4.08375C15.8371 4.43094 16.8566 5.03345 17.6989 5.84344C18.5413 6.65343 19.1832 7.64862 19.5738 8.75H16.1038C15.9463 7.4375 15.6675 6.25125 15.2938 5.28ZM16.2125 10H19.895C20.034 10.8275 20.034 11.6725 19.895 12.5H16.2125C16.2606 11.6674 16.2606 10.8326 16.2125 10ZM16.1025 13.75H19.5725C19.1819 14.8514 18.54 15.8466 17.6977 16.6566C16.8554 17.4666 15.8358 18.0691 14.72 18.4162C14.9325 18.06 15.1238 17.6563 15.2913 17.22C15.6663 16.2488 15.945 15.0625 16.1038 13.75H16.1025ZM13.2525 18.3162C12.9488 18.65 12.6938 18.75 12.4988 18.75C12.3038 18.75 12.0488 18.65 11.745 18.3162C11.4413 17.9825 11.1388 17.4637 10.8725 16.7712C10.5538 15.9437 10.3038 14.9137 10.155 13.75H14.8425C14.6925 14.9125 14.4425 15.9437 14.125 16.7712C13.8588 17.4637 13.5563 17.9825 13.2525 18.3162ZM5.42626 13.75C5.81684 14.8514 6.45876 15.8466 7.30109 16.6566C8.14341 17.4666 9.16294 18.0691 10.2788 18.4162C10.0544 18.0346 9.8633 17.6344 9.70751 17.22C9.33251 16.2488 9.05376 15.0625 8.89501 13.75H5.42626ZM8.78626 12.5H5.10376C4.96483 11.6725 4.96483 10.8275 5.10376 10H8.78626C8.73832 10.8326 8.73832 11.6674 8.78626 12.5ZM10.0375 10C9.98653 10.8326 9.98653 11.6674 10.0375 12.5H14.9625C15.0135 11.6674 15.0135 10.8326 14.9625 10H10.0375ZM4.37501 16.25H5.31876C5.62876 16.695 5.98001 17.11 6.36501 17.49C6.32707 17.4969 6.28857 17.5002 6.25001 17.5H4.86251L3.92501 21.25H21.075L20.1375 17.5H18.75C18.7115 17.5002 18.673 17.4969 18.635 17.49C19.0212 17.1098 19.3714 16.6947 19.6813 16.25H20.625C20.7644 16.25 20.8998 16.2967 21.0097 16.3825C21.1195 16.4684 21.1975 16.5885 21.2313 16.7237L22.4813 21.7237C22.5042 21.8159 22.5059 21.912 22.4862 22.0049C22.4665 22.0977 22.4258 22.1849 22.3674 22.2597C22.309 22.3345 22.2343 22.395 22.1489 22.4367C22.0636 22.4783 21.9699 22.5 21.875 22.5H3.12501C3.03007 22.5 2.93639 22.4783 2.85107 22.4367C2.76575 22.395 2.69104 22.3345 2.63261 22.2597C2.57417 22.1849 2.53355 22.0977 2.51382 22.0049C2.4941 21.912 2.49579 21.8159 2.51876 21.7237L3.76876 16.7237C3.8025 16.5885 3.8805 16.4684 3.99035 16.3825C4.1002 16.2967 4.2356 16.25 4.37501 16.25Z" fill="black"/>
</svg>
