<svg width="61" height="61" viewBox="0 0 61 61" fill="none" xmlns="http://www.w3.org/2000/svg">
<circle cx="30.5" cy="30.5" r="30.5" fill="#A9886D"/>
<path d="M24.4896 48.9584L42.0417 31.4584C42.25 31.2501 42.3979 31.0244 42.4854 30.7813C42.5729 30.5383 42.616 30.2779 42.6146 30.0001C42.6146 29.7223 42.5715 29.4619 42.4854 29.2188C42.3993 28.9758 42.2514 28.7501 42.0417 28.5417L24.4896 10.9897C24.0035 10.5036 23.3958 10.2605 22.6667 10.2605C21.9375 10.2605 21.3125 10.5209 20.7917 11.0417C20.2708 11.5626 20.0104 12.1702 20.0104 12.8647C20.0104 13.5591 20.2708 14.1667 20.7917 14.6876L36.1042 30.0001L20.7917 45.3126C20.3056 45.7987 20.0625 46.398 20.0625 47.1105C20.0625 47.823 20.3229 48.439 20.8438 48.9584C21.3646 49.4792 21.9722 49.7397 22.6667 49.7397C23.3611 49.7397 23.9688 49.4792 24.4896 48.9584Z" fill="#DCD7C9"/>
</svg>
