<svg width="61" height="61" viewBox="0 0 61 61" fill="none" xmlns="http://www.w3.org/2000/svg">
<circle cx="30.5" cy="30.5" r="30.5" transform="matrix(-1 0 0 1 61 0)" fill="#A9886D"/>
<path d="M36.5104 48.9584L18.9583 31.4584C18.75 31.2501 18.6021 31.0244 18.5146 30.7813C18.4271 30.5383 18.384 30.2779 18.3854 30.0001C18.3854 29.7223 18.4285 29.4619 18.5146 29.2188C18.6007 28.9758 18.7486 28.7501 18.9583 28.5417L36.5104 10.9897C36.9965 10.5036 37.6042 10.2605 38.3333 10.2605C39.0625 10.2605 39.6875 10.5209 40.2083 11.0417C40.7292 11.5626 40.9896 12.1702 40.9896 12.8647C40.9896 13.5591 40.7292 14.1667 40.2083 14.6876L24.8958 30.0001L40.2083 45.3126C40.6944 45.7987 40.9375 46.398 40.9375 47.1105C40.9375 47.823 40.6771 48.439 40.1562 48.9584C39.6354 49.4792 39.0278 49.7397 38.3333 49.7397C37.6389 49.7397 37.0312 49.4792 36.5104 48.9584Z" fill="#DCD7C9"/>
</svg>
