<svg width="22" height="22" viewBox="0 0 22 22" fill="none" xmlns="http://www.w3.org/2000/svg">
<path d="M1.83334 6.41671C1.83334 5.93048 2.0265 5.46416 2.37031 5.12034C2.71413 4.77653 3.18045 4.58337 3.66668 4.58337H18.3333C18.8196 4.58337 19.2859 4.77653 19.6297 5.12034C19.9735 5.46416 20.1667 5.93048 20.1667 6.41671V15.5834C20.1667 16.0696 19.9735 16.5359 19.6297 16.8797C19.2859 17.2236 18.8196 17.4167 18.3333 17.4167H3.66668C3.18045 17.4167 2.71413 17.2236 2.37031 16.8797C2.0265 16.5359 1.83334 16.0696 1.83334 15.5834V6.41671Z" stroke="#A27B5C" stroke-width="2" stroke-linecap="round" stroke-linejoin="round"/>
<path d="M11 13.75C12.5188 13.75 13.75 12.5188 13.75 11C13.75 9.48122 12.5188 8.25 11 8.25C9.48122 8.25 8.25 9.48122 8.25 11C8.25 12.5188 9.48122 13.75 11 13.75Z" stroke="#A27B5C" stroke-width="2" stroke-linecap="round" stroke-linejoin="round"/>
<path d="M1.83334 8.25004C2.8058 8.25004 3.73844 7.86373 4.42607 7.1761C5.1137 6.48847 5.50001 5.55583 5.50001 4.58337M16.5 17.4167C16.5 16.4442 16.8863 15.5116 17.574 14.824C18.2616 14.1363 19.1942 13.75 20.1667 13.75" stroke="#A27B5C" stroke-width="2" stroke-linecap="round" stroke-linejoin="round"/>
</svg>
