<svg width="25" height="25" viewBox="0 0 25 25" fill="none" xmlns="http://www.w3.org/2000/svg">
<path d="M2.34375 9.375C2.34375 3.90625 7.8125 3.90625 12.5 3.90625C17.1875 3.90625 22.6562 3.90625 22.6562 9.375C22.6562 15.625 17.1875 8.59375 17.1875 8.59375H7.8125C7.8125 8.59375 2.34375 15.625 2.34375 9.375ZM8.59375 10.9375C8.59375 10.9375 4.6875 14.8438 4.6875 21.875H20.3125C20.3125 14.8438 16.4062 10.9375 16.4062 10.9375H8.59375Z" stroke="#DCD7C9" stroke-width="2" stroke-linecap="round" stroke-linejoin="round"/>
<path d="M12.5 19.5312C14.2259 19.5312 15.625 18.1321 15.625 16.4062C15.625 14.6804 14.2259 13.2812 12.5 13.2812C10.7741 13.2812 9.375 14.6804 9.375 16.4062C9.375 18.1321 10.7741 19.5312 12.5 19.5312Z" stroke="#DCD7C9" stroke-width="2" stroke-linecap="round" stroke-linejoin="round"/>
</svg>
