<svg width="22" height="22" viewBox="0 0 22 22" fill="none" xmlns="http://www.w3.org/2000/svg">
<path d="M10.0833 17.4166V10.0833H5.5C5.19445 10.0833 4.95 9.96109 4.76667 9.71665C4.58334 9.47221 4.5375 9.1972 4.62917 8.89165L6.41667 3.11665C6.53889 2.7347 6.76042 2.42518 7.08125 2.18807C7.40209 1.95095 7.76111 1.8327 8.15834 1.83332H13.8417C14.2389 1.83332 14.5979 1.95187 14.9188 2.18898C15.2396 2.42609 15.4611 2.73532 15.5833 3.11665L17.3708 8.89165C17.4625 9.1972 17.4167 9.47221 17.2333 9.71665C17.05 9.96109 16.8056 10.0833 16.5 10.0833H11.9167V17.4166H10.0833ZM7.33334 20.1666V18.3333H14.6667V20.1666H7.33334Z" fill="black"/>
</svg>
