<svg width="24" height="24" viewBox="0 0 24 24" fill="none" xmlns="http://www.w3.org/2000/svg">
<path d="M17 8.94701C16.632 9.10701 16.237 9.21701 15.822 9.26501C16.246 9.01501 16.57 8.61901 16.724 8.14801C16.32 8.38348 15.8791 8.54913 15.42 8.63801C15.2269 8.43558 14.9945 8.27462 14.7372 8.16493C14.4798 8.05524 14.2028 7.99913 13.923 8.00001C12.79 8.00001 11.872 8.90501 11.872 10.02C11.872 10.178 11.89 10.332 11.925 10.48C11.1123 10.4414 10.3166 10.2339 9.58865 9.87056C8.86068 9.50726 8.21643 8.99621 7.697 8.37001C7.51456 8.67711 7.41851 9.02781 7.419 9.38501C7.419 10.085 7.782 10.705 8.332 11.066C8.00644 11.0558 7.68786 10.9691 7.402 10.813V10.838C7.40509 11.3075 7.5708 11.7613 7.87092 12.1224C8.17103 12.4834 8.587 12.7292 9.048 12.818C8.74536 12.898 8.42869 12.9096 8.121 12.852C8.25513 13.2559 8.51167 13.608 8.85502 13.8594C9.19837 14.1108 9.61148 14.2491 10.037 14.255C9.30696 14.8176 8.41064 15.1215 7.489 15.119C7.324 15.119 7.161 15.109 7 15.091C7.94047 15.6863 9.03096 16.0016 10.144 16C13.918 16 15.981 12.922 15.981 10.252L15.974 9.99001C16.3763 9.70729 16.7239 9.3539 17 8.94701Z" fill="#DCD7C9"/>
<path d="M6 4C5.46957 4 4.96086 4.21071 4.58579 4.58579C4.21071 4.96086 4 5.46957 4 6V18C4 18.5304 4.21071 19.0391 4.58579 19.4142C4.96086 19.7893 5.46957 20 6 20H18C18.5304 20 19.0391 19.7893 19.4142 19.4142C19.7893 19.0391 20 18.5304 20 18V6C20 5.46957 19.7893 4.96086 19.4142 4.58579C19.0391 4.21071 18.5304 4 18 4H6ZM6 2H18C19.0609 2 20.0783 2.42143 20.8284 3.17157C21.5786 3.92172 22 4.93913 22 6V18C22 19.0609 21.5786 20.0783 20.8284 20.8284C20.0783 21.5786 19.0609 22 18 22H6C4.93913 22 3.92172 21.5786 3.17157 20.8284C2.42143 20.0783 2 19.0609 2 18V6C2 4.93913 2.42143 3.92172 3.17157 3.17157C3.92172 2.42143 4.93913 2 6 2Z" fill="#DCD7C9"/>
</svg>
